<?xml version="1.0" encoding="UTF-8"?>
<svg xmlns="http://www.w3.org/2000/svg" xmlns:xlink="http://www.w3.org/1999/xlink" viewBox="0 0 50 50" width="50px" height="50px">
<g id="surface142753019">
<path style=" stroke:none;fill-rule:nonzero;fill:rgb(100%,100%,100%);fill-opacity:1;" d="M 24.847656 10 C 11.078125 10 10 11.078125 10 24.847656 L 10 25.148438 C 10 38.921875 11.078125 40 24.847656 40 L 25.148438 40 C 38.921875 40 40 38.921875 40 25.148438 L 40 24.847656 C 40 11.078125 38.921875 10 25.148438 10 Z M 23.753906 11 L 26.246094 11 C 38.074219 11 39 11.925781 39 23.753906 L 39 26.246094 C 39 38.074219 38.074219 39 26.246094 39 L 23.753906 39 C 11.925781 39 11 38.074219 11 26.246094 L 11 23.753906 C 11 11.925781 11.925781 11 23.753906 11 Z M 33.496094 15 C 32.667969 15.003906 31.996094 15.675781 32 16.503906 C 32.003906 17.332031 32.675781 18.003906 33.503906 18 C 34.332031 17.996094 35.003906 17.324219 35 16.496094 C 34.996094 15.667969 34.324219 14.996094 33.496094 15 Z M 24.980469 17 C 20.5625 17.011719 16.988281 20.601562 17 25.019531 C 17.011719 29.4375 20.601562 33.011719 25.019531 33 C 29.4375 32.988281 33.011719 29.398438 33 24.980469 C 32.988281 20.5625 29.398438 16.988281 24.980469 17 Z M 24.980469 18 C 28.847656 17.992188 31.992188 21.117188 32 24.980469 C 32.007812 28.847656 28.882812 31.992188 25.019531 32 C 21.152344 32.007812 18.007812 28.882812 18 25.019531 C 17.992188 21.152344 21.117188 18.007812 24.980469 18 Z M 24.980469 18 "/>
</g>
</svg>
