<?xml version="1.0" encoding="UTF-8"?>
<svg xmlns="http://www.w3.org/2000/svg" xmlns:xlink="http://www.w3.org/1999/xlink" viewBox="0 0 50 50" width="50px" height="50px">
<g id="surface142966461">
<path style=" stroke:none;fill-rule:nonzero;fill:rgb(100%,100%,100%);fill-opacity:1;" d="M 17.722656 10 C 10.5625 10 10 10.5625 10 17.722656 L 10 32.277344 C 10 39.4375 10.5625 40 17.722656 40 L 32.277344 40 C 39.4375 40 40 39.4375 40 32.277344 L 40 17.769531 C 40 10.5625 39.4375 10 32.230469 10 Z M 17 11 L 33 11 C 38.566406 11 39 11.433594 39 17 L 39 33 C 39 38.566406 38.566406 39 33 39 L 17 39 C 11.433594 39 11 38.566406 11 33 L 11 17 C 11 11.433594 11.433594 11 17 11 Z M 17.878906 14.878906 C 16.65625 14.878906 15.664062 15.867188 15.664062 17.089844 C 15.664062 18.308594 16.652344 19.300781 17.878906 19.300781 C 19.097656 19.300781 20.085938 18.308594 20.085938 17.089844 C 20.085938 15.867188 19.097656 14.878906 17.878906 14.878906 Z M 29.449219 20.742188 C 27.605469 20.742188 26.367188 21.753906 25.859375 22.714844 L 25.808594 22.714844 L 25.808594 21.046875 L 22.171875 21.046875 L 22.171875 33.25 L 25.960938 33.25 L 25.960938 27.214844 C 25.960938 25.621094 26.265625 24.078125 28.238281 24.078125 C 30.183594 24.078125 30.210938 25.898438 30.210938 27.316406 L 30.210938 33.25 L 34 33.25 L 34 26.558594 C 34 23.269531 33.289062 20.742188 29.449219 20.742188 Z M 15.980469 21.046875 L 15.980469 33.25 L 19.773438 33.25 L 19.773438 21.046875 Z M 15.980469 21.046875 "/>
</g>
</svg>
